<?xml version="1.0" encoding="utf-8"?><svg xmlns="http://www.w3.org/2000/svg" xmlns:xlink="http://www.w3.org/1999/xlink" width="1718" height="1321" preserveAspectRatio="xMidYMid" viewBox="0 0 1718 1321" style="z-index:1;margin-right:-2px;display:block;background-repeat-y:initial;background-repeat-x:initial;background-color:rgb(241, 242, 243);animation-play-state:paused" ><g transform="translate(859,660.5) scale(1,1) translate(-859,-660.5)" style="transform:matrix(1, 0, 0, 1, 0, 0);animation-play-state:paused" ><linearGradient id="lg-0.9839387166465077" x1="0" x2="1" y1="0" y2="0" style="animation-play-state:paused" ><stop stop-color="#1c4595" offset="0" style="animation-play-state:paused" ></stop>

  
<stop stop-color="#e76a24" offset="1" style="animation-play-state:paused" ></stop></linearGradient>
<path d="M 0 0 L 0 976.371 Q 171.8 800.823 343.6 775.097 T 687.2 1087.29 T 1030.8 577.156 T 1374.4 534.398 T 1718 507.159 L 1718 0 Z" fill="url(#lg-0.9839387166465077)" opacity="0.4" style="opacity:0.4;animation-play-state:paused" ></path>
<path d="M 0 0 L 0 1101.94 Q 171.8 1049.69 343.6 1028.36 T 687.2 868.921 T 1030.8 826.214 T 1374.4 593.771 T 1718 662.867 L 1718 0 Z" fill="url(#lg-0.9839387166465077)" opacity="0.4" style="opacity:0.4;animation-play-state:paused" ></path>
<path d="M 0 0 L 0 953.748 Q 171.8 928.523 343.6 889.882 T 687.2 970.858 T 1030.8 848.318 T 1374.4 745.931 T 1718 466.861 L 1718 0 Z" fill="url(#lg-0.9839387166465077)" opacity="0.4" style="opacity:0.4;animation-play-state:paused" ></path>
<path d="M 0 0 L 0 1105.67 Q 171.8 1143.47 343.6 1105.93 T 687.2 893.415 T 1030.8 672.063 T 1374.4 765.782 T 1718 625.486 L 1718 0 Z" fill="url(#lg-0.9839387166465077)" opacity="0.4" style="opacity:0.4;animation-play-state:paused" ></path>
<path d="M 0 0 L 0 1054.57 Q 171.8 936.908 343.6 896.089 T 687.2 880.183 T 1030.8 874.201 T 1374.4 574.121 T 1718 483.691 L 1718 0 Z" fill="url(#lg-0.9839387166465077)" opacity="0.4" style="opacity:0.4;animation-play-state:paused" ></path></g></svg>